<?xml version="1.0" encoding="UTF-8"?>
<svg id="Layer_2" data-name="Layer 2" xmlns="http://www.w3.org/2000/svg" viewBox="0 0 525.56 527.78">
  <defs>
    <style>
      .cls-1 {
        fill: #262626;
      }
    </style>
  </defs>
  <path class="cls-1" d="M261.11,264.44c73.02,0,132.22-59.2,132.22-132.22S334.14,0,261.11,0s-132.22,59.2-132.22,132.22,59.2,132.22,132.22,132.22ZM261.11,62.22c38.66,0,70,31.34,70,70s-31.34,70-70,70-70-31.34-70-70,31.34-70,70-70Z"/>
  <path class="cls-1" d="M462.22,339.02c-58.42-25.21-126.61-39.68-199.44-39.68s-140.16,14.29-198.33,39.21c-13.79,5.91-27.04,12.41-39.68,19.46-15.31,8.54-24.76,24.74-24.76,42.28v127.5h525.56v-127.5c0-17.51-9.42-33.71-24.72-42.25-12.32-6.87-25.21-13.22-38.62-19.01ZM64.44,461.11v-48.5c53.61-32.82,122.79-52.61,198.33-52.61s145.68,20.06,199.44,53.29v47.82H64.44Z"/>
</svg>