<?xml version="1.0" encoding="UTF-8"?>
<svg id="Layer_2" data-name="Layer 2" xmlns="http://www.w3.org/2000/svg" viewBox="0 0 392.22 473.33">
  <defs>
    <style>
      .cls-1 {
        fill: #262626;
      }

      .cls-2 {
        fill: none;
      }
    </style>
  </defs>
  <polygon class="cls-2" points="233.92 210.95 326.21 210.95 326.21 286.57 233.92 286.57 233.92 378.86 158.3 378.86 158.3 286.57 66.01 286.57 66.01 210.95 158.3 210.95 158.3 118.66 204.48 118.66 204.48 56.67 54.44 56.67 54.44 416.67 337.78 416.67 337.78 186.39 233.92 186.39 233.92 210.95"/>
  <path class="cls-1" d="M386.07,163.89l-48.3-48.3-58.93-58.93L228.33,6.15c-3.94-3.94-9.27-6.15-14.84-6.15H20.65C9.25,0,0,9.25,0,20.65v432.03c0,11.41,9.25,20.65,20.65,20.65h350.92c11.41,0,20.65-9.25,20.65-20.65V178.73c0-5.57-2.21-10.9-6.15-14.84ZM337.78,416.67H54.44V56.67h150.04v62h29.44v67.72h103.86v230.28Z"/>
  <polygon class="cls-1" points="158.3 210.95 233.92 210.95 233.92 186.39 204.48 186.39 204.48 118.66 158.3 118.66 158.3 210.95"/>
  <rect class="cls-1" x="158.3" y="286.57" width="75.62" height="92.29"/>
  <rect class="cls-1" x="233.92" y="210.95" width="92.29" height="75.62"/>
  <rect class="cls-1" x="66.01" y="210.95" width="92.29" height="75.62"/>
  <rect class="cls-1" x="158.3" y="210.95" width="75.62" height="75.62"/>
</svg>