<?xml version="1.0" encoding="UTF-8"?>
<svg id="Layer_2" data-name="Layer 2" xmlns="http://www.w3.org/2000/svg" viewBox="0 0 392.22 473.33">
  <defs>
    <style>
      .cls-1 {
        fill: #262626;
      }

      .cls-2 {
        fill: none;
      }
    </style>
  </defs>
  <path class="cls-2" d="M204.48,132.53c-2.94-.8-6.02-1.23-9.21-1.23-19.41,0-35.15,15.74-35.15,35.15s15.74,35.15,35.15,35.15c12.01,0,22.61-6.03,28.95-15.23h-19.75v-53.85Z"/>
  <path class="cls-2" d="M96.51,307.27v24.36h199.76v-24.01c-27-16.69-61.96-26.76-100.16-26.76s-72.68,9.94-99.6,26.42Z"/>
  <path class="cls-2" d="M195.27,232.86c-36.67,0-66.4-29.73-66.4-66.4s29.73-66.4,66.4-66.4c3.13,0,6.2.23,9.21.65v-44.04H54.44v360h283.33v-230.28h-79.15c-8.46,26.93-33.63,46.47-63.35,46.47ZM328.07,301.07v64.03H64.15v-64.03c0-8.81,4.75-16.94,12.44-21.23,6.35-3.54,13-6.81,19.93-9.77,29.21-12.51,63.25-19.69,99.6-19.69s70.82,7.27,100.16,19.93c6.73,2.91,13.21,6.1,19.39,9.55,7.68,4.29,12.41,12.42,12.41,21.22Z"/>
  <path class="cls-1" d="M204.48,132.53v53.85h19.75c3.91-5.66,6.2-12.53,6.2-19.93,0-16.23-11-29.88-25.94-33.93Z"/>
  <path class="cls-1" d="M386.07,163.89l-48.3-48.3-58.93-58.93L228.33,6.15c-3.94-3.94-9.27-6.15-14.84-6.15H20.65C9.25,0,0,9.25,0,20.65v432.03c0,11.41,9.25,20.65,20.65,20.65h350.92c11.41,0,20.65-9.25,20.65-20.65V178.73c0-5.57-2.21-10.9-6.15-14.84ZM337.78,416.67H54.44V56.67h150.04v44.04c32.31,4.49,57.19,32.2,57.19,65.75,0,6.94-1.07,13.64-3.05,19.93h79.15v230.28Z"/>
  <path class="cls-1" d="M128.87,166.46c0,36.67,29.73,66.4,66.4,66.4,29.73,0,54.89-19.54,63.35-46.47h-34.4c-6.34,9.19-16.94,15.23-28.95,15.23-19.41,0-35.15-15.74-35.15-35.15s15.74-35.15,35.15-35.15c3.19,0,6.27.43,9.21,1.23v-31.82c-3.01-.42-6.08-.65-9.21-.65-36.67,0-66.4,29.73-66.4,66.4Z"/>
  <path class="cls-1" d="M196.11,250.38c-36.35,0-70.39,7.18-99.6,19.69-6.92,2.97-13.58,6.23-19.93,9.77-7.69,4.29-12.44,12.42-12.44,21.23v64.03h263.93v-64.03c0-8.8-4.73-16.93-12.41-21.22-6.18-3.45-12.66-6.64-19.39-9.55-29.34-12.66-63.58-19.93-100.16-19.93ZM296.27,331.62H96.51v-24.36c26.92-16.48,61.67-26.42,99.6-26.42s73.16,10.07,100.16,26.76v24.01Z"/>
</svg>