<?xml version="1.0" encoding="UTF-8"?>
<svg id="Layer_2" data-name="Layer 2" xmlns="http://www.w3.org/2000/svg" viewBox="0 0 608.25 521.66">
  <defs>
    <style>
      .cls-1 {
        fill: #262626;
      }

      .cls-2 {
        fill: none;
      }
    </style>
  </defs>
  <path class="cls-2" d="M243.11,266.62l57.97-57.97c-31.16,1.54-56.43,26.81-57.97,57.97Z"/>
  <path class="cls-2" d="M412.72,268.72c.52,60.72-48.81,110.05-109.53,109.53-22.53-.19-43.48-7.35-60.81-19.41l-32.32,32.32c29.17,11.35,60.89,17.59,94.08,17.59,94.29,0,176.82-50.3,222.25-125.52,5.04-8.34,5.04-18.8,0-27.14-22.4-37.09-53.82-68.11-91.22-90.04l-41.85,41.85c12.06,17.32,19.22,38.28,19.41,60.81Z"/>
  <path class="cls-2" d="M306.13,330.75c32-1.02,58.06-27.08,59.08-59.08.34-10.54-2.01-20.5-6.39-29.26l-81.95,81.95c8.77,4.38,18.72,6.73,29.26,6.39Z"/>
  <path class="cls-2" d="M195.54,270.61c-.52-60.72,48.81-110.05,109.53-109.53,12.9.11,25.29,2.5,36.78,6.8l28.71-28.71c-21.2-5.6-43.47-8.59-66.43-8.59-94.29,0-176.82,50.3-222.25,125.52-5.04,8.34-5.04,18.8,0,27.14,17.83,29.52,41.38,55.2,69.1,75.51l51.36-51.36c-4.29-11.49-6.69-23.87-6.8-36.78Z"/>
  <path class="cls-1" d="M603.56,252.71c-31.33-52.37-76.01-95.84-129.34-125.71l-39.07,39.07c37.4,21.93,68.82,52.95,91.22,90.04,5.04,8.34,5.04,18.8,0,27.14-45.43,75.22-127.96,125.52-222.25,125.52-33.18,0-64.91-6.24-94.08-17.59l-39.08,39.08c41.03,16.97,85.99,26.34,133.15,26.34,127.24,0,238.54-68.16,299.43-169.95,6.26-10.46,6.26-23.47,0-33.93Z"/>
  <path class="cls-1" d="M81.87,283.24c-5.04-8.34-5.04-18.8,0-27.14,45.43-75.22,127.96-125.52,222.25-125.52,22.96,0,45.23,2.99,66.43,8.59l39.9-39.9c-33.52-10.72-69.24-16.52-106.32-16.52-127.24,0-238.54,68.16-299.43,169.95-6.26,10.46-6.26,23.47,0,33.93,26.77,44.74,63.28,82.99,106.6,111.8l39.69-39.69c-27.73-20.31-51.27-45.99-69.1-75.51Z"/>
  <path class="cls-1" d="M365.21,271.67c-1.02,32-27.08,58.06-59.08,59.08-10.54.34-20.5-2.01-29.26-6.39l-34.49,34.49c17.32,12.06,38.28,19.22,60.81,19.41,60.72.52,110.05-48.81,109.53-109.53-.19-22.53-7.35-43.48-19.41-60.81l-34.49,34.49c4.38,8.77,6.73,18.72,6.39,29.26Z"/>
  <path class="cls-1" d="M195.54,270.61c.11,12.9,2.5,25.29,6.8,36.78l40.77-40.77c1.54-31.16,26.81-56.43,57.97-57.97l40.77-40.77c-11.49-4.29-23.87-6.69-36.78-6.8-60.72-.52-110.05,48.81-109.53,109.53Z"/>
  <path class="cls-1" d="M555.47,45.75L509.73,0l-99.28,99.28c22.32,7.14,43.66,16.46,63.77,27.72l81.25-81.25Z"/>
  <path class="cls-1" d="M276.86,324.36l81.95-81.95c-10.3-20.62-31.89-34.61-56.69-33.82-.35.01-.7.04-1.05.06l-57.97,57.97c-.02.35-.05.7-.06,1.05-.79,24.79,13.2,46.39,33.82,56.69Z"/>
  <path class="cls-1" d="M33.81,475.91l45.75,45.75,91.42-91.42c-21.01-8.69-40.98-19.37-59.68-31.81l-77.48,77.48Z"/>
  <path class="cls-1" d="M341.85,167.88c20.94,7.82,38.86,21.95,51.45,40.04l41.85-41.85c-19.98-11.72-41.67-20.83-64.6-26.89l-28.71,28.71Z"/>
  <path class="cls-1" d="M202.33,307.39l-51.36,51.36c18.06,13.23,37.89,24.17,59.07,32.42l32.32-32.32c-18.09-12.59-32.22-30.52-40.04-51.45Z"/>
</svg>