<?xml version="1.0" encoding="UTF-8"?>
<svg id="Layer_2" data-name="Layer 2" xmlns="http://www.w3.org/2000/svg" viewBox="0 0 608.25 373.83">
  <defs>
    <style>
      .cls-1 {
        fill: #262626;
      }
    </style>
  </defs>
  <path class="cls-1" d="M304.13,0C176.89,0,65.59,68.16,4.69,169.95c-6.26,10.46-6.26,23.47,0,33.93,60.89,101.79,172.2,169.95,299.43,169.95s238.54-68.16,299.43-169.95c6.26-10.46,6.26-23.47,0-33.93C542.67,68.16,431.37,0,304.13,0ZM304.13,326.01c-94.29,0-176.82-50.3-222.25-125.52-5.04-8.34-5.04-18.8,0-27.14,45.43-75.22,127.96-125.52,222.25-125.52s176.82,50.3,222.25,125.52c5.04,8.34,5.04,18.8,0,27.14-45.43,75.22-127.96,125.52-222.25,125.52Z"/>
  <path class="cls-1" d="M305.07,78.33c-60.72-.52-110.05,48.81-109.53,109.53.5,58.96,48.68,107.14,107.64,107.64,60.72.52,110.05-48.81,109.53-109.53-.5-58.96-48.68-107.14-107.64-107.64ZM306.13,247.99c-35.33,1.13-64.21-27.75-63.08-63.08,1.02-32,27.08-58.06,59.08-59.08,35.33-1.13,64.21,27.75,63.08,63.08-1.02,32-27.08,58.06-59.08,59.08Z"/>
</svg>